<?xml version="1.0" encoding="utf-8"?>
<!-- Generator: Adobe Illustrator 22.0.1, SVG Export Plug-In . SVG Version: 6.00 Build 0)  -->
<svg version="1.1" id="Layer_1" xmlns="http://www.w3.org/2000/svg" xmlns:xlink="http://www.w3.org/1999/xlink" x="0px" y="0px"
	 viewBox="0 0 14 14" style="enable-background:new 0 0 14 14;" xml:space="preserve">
<style type="text/css">
	.st0{fill:#D50000;}
</style>
<g id="NBPizq.tif">
	<g>
		<path class="st0" d="M6.9758577,13.3351297c-1.8159995,0.0000458-3.6319997,0.0009317-5.447998-0.0003519
			c-0.8282205-0.0005856-1.4922711-0.6337004-1.5266473-1.4607954c-0.0124452-0.2994299,0.0716223-0.5786228,0.2210029-0.8400497
			c0.4776813-0.8359804,0.9524388-1.6736326,1.4276917-2.5109978C2.3288341,7.3267093,3.0065153,6.129776,3.6860032,4.9338694
			c0.6613564-1.163996,1.3204784-2.3292897,1.9882865-3.4895787c0.3077955-0.5347818,0.780426-0.8049228,1.4005404-0.7779543
			C7.6551495,0.691574,8.070138,0.9878895,8.3538313,1.4888905c0.7793446,1.3763181,1.5638552,2.7497096,2.3447599,4.1251454
			c0.7107382,1.2518497,1.419528,2.5048051,2.1289759,3.7573867c0.3276091,0.5784197,0.6684284,1.1498947,0.9782267,1.7377129
			c0.3075409,0.5835314,0.2472181,1.1563606-0.1624546,1.6735573c-0.2891026,0.3649797-0.6820498,0.550806-1.1506052,0.5514145
			C10.6537781,13.3364954,8.8148174,13.335084,6.9758577,13.3351297z M7.9222436,4.9498162
			c0.0077047-0.1886244,0.0004139-0.3766599-0.037652-0.5611949C7.8615623,4.276979,7.8234534,4.1681838,7.7880797,4.0594234
			C7.7486744,3.9382699,7.6748614,3.841718,7.5710163,3.7664487C7.1060295,3.4294155,6.4217153,3.7333155,6.3090162,4.3258438
			C6.2480583,4.646337,6.3020954,4.9664636,6.3177066,5.284833C6.3575983,6.098371,6.4188118,6.9109015,6.4754047,7.7235632
			C6.496686,8.0291491,6.5127673,8.3359194,6.6227489,8.6283464c0.0852747,0.2267361,0.2441978,0.3480387,0.4731088,0.3456955
			c0.2246642-0.0023012,0.3944736-0.1288147,0.4703903-0.3532248c0.063518-0.1877584,0.090765-0.3818398,0.1057215-0.5792189
			c0.0297322-0.3923631,0.0676832-0.7840962,0.0992093-1.176333C7.8224926,6.2268171,7.8991761,5.5903354,7.9222436,4.9498162z
			 M7.8978276,10.559742c0.0050821-0.4876823-0.3316393-0.8308887-0.8194103-0.8351936
			c-0.4572873-0.004034-0.8185835,0.3527689-0.8232265,0.8129902c-0.004622,0.4581995,0.3396587,0.8048468,0.8049865,0.8105183
			C7.5686545,11.3542538,7.8927264,11.0492697,7.8978276,10.559742z"/>
	</g>
</g>
</svg>
