<?xml version="1.0" encoding="utf-8"?>
<!-- Generator: Adobe Illustrator 22.0.1, SVG Export Plug-In . SVG Version: 6.00 Build 0)  -->
<svg version="1.1" id="Layer_1" xmlns="http://www.w3.org/2000/svg" xmlns:xlink="http://www.w3.org/1999/xlink" x="0px" y="0px"
	 viewBox="0 0 20 20" style="enable-background:new 0 0 20 20;" xml:space="preserve">
<style type="text/css">
	.st0{fill:#BF2034;}
	.st1{fill:#FFFFFF;}
</style>
<path class="st0" d="M4.8334045,18.7922897c-1.9992542,0-3.6257429-1.6264896-3.6257429-3.6256447V4.9654651
	c0-1.9993522,1.6264887-3.6258409,3.6257429-3.6258409H15.034584c1.9992542,0,3.6258411,1.6264887,3.6258411,3.6258409v10.2011795
	c0,1.999155-1.6265869,3.6256447-3.6258411,3.6256447H4.8334045z"/>
<g>
	<path class="st0" d="M15.0345926,2.5472429c1.333375,0,2.4181547,1.0847781,2.4181547,2.418155v10.2011852
		c0,1.3333769-1.0847797,2.4181547-2.4181547,2.4181547H4.8334169c-1.3333769,0-2.418155-1.0847778-2.418155-2.4181547V4.9653978
		c0-1.3333769,1.0847781-2.418155,2.418155-2.418155H15.0345926 M15.0345926,0.1319809H4.8334169
		C2.1639915,0.1319809,0,2.2959785,0,4.9653978v10.2011852C0,17.8360023,2.1639915,20,4.8334169,20h10.2011757
		c2.669425,0,4.8334169-2.1639977,4.8334169-4.8334169V4.9653978C19.8680096,2.2959785,17.7040176,0.1319809,15.0345926,0.1319809
		L15.0345926,0.1319809z"/>
</g>
<g>
	<g>
		<path class="st1" d="M9.0800142,14.7172861c-0.2129669,0-0.4274082-0.0672216-0.6093197-0.2057924l-4.2267079-3.2203493
			c-0.4420509-0.336894-0.5274539-0.9684238-0.1905594-1.4104748C4.390223,9.4388151,5.0216546,9.353117,5.4638038,9.690012
			l3.4514976,2.629899l5.3183718-6.5340619c0.3509483-0.4310436,0.9849348-0.4961033,1.415782-0.1452537
			c0.4310446,0.3508501,0.4961042,0.9847383,0.1452541,1.4157825l-5.933588,7.2898135
			C9.6626015,14.5901155,9.3726835,14.7172861,9.0800142,14.7172861z"/>
	</g>
</g>
</svg>
